<svg width="1840" height="1380" viewBox="0 0 1840 1380" fill="none" xmlns="http://www.w3.org/2000/svg">
<path d="M854.243 1026.86C854.243 1026.86 915.696 996.737 963.661 1001.88C1011.62 1007.03 1027.89 1030.83 1032.65 1042.72C1037.41 1054.61 1038.2 1090.68 1025.11 1107.33C1012.03 1123.98 988.924 1127.24 969.711 1128.18C950.499 1129.13 928.318 1131.32 926.102 1129.28C923.906 1127.24 920.591 1123.92 920.591 1123.92C920.591 1123.92 890.202 1127.06 878.87 1124.71C867.539 1122.34 850.061 1121.88 850.061 1121.88C850.061 1121.88 814.18 1143.6 790.4 1143.6C766.639 1143.6 737.502 1140.76 722.394 1133.67C707.286 1126.58 706.65 1118.57 709.637 1115.73C712.624 1112.9 716.401 1112.59 739.063 1116.04C761.725 1119.49 794.524 1112.71 794.524 1112.71L778.279 1103.92C778.279 1103.92 726.48 1102.67 715.303 1094.32C704.126 1085.98 705.07 1077.17 710.89 1074.01C716.71 1070.87 732.454 1074.96 747.099 1076.05C761.745 1077.15 775.272 1077.94 775.272 1077.94L854.243 1026.86Z" fill="white"/>
<path d="M902.611 597.242C902.611 597.242 903.324 635.571 901.532 651.334C899.74 667.098 901.166 705.427 900.819 709.011C900.453 712.595 882.897 746.993 877.174 749.498C871.451 752.003 859.985 743.043 857.479 714.04C854.974 685.019 856.766 615.53 856.766 615.53L902.611 597.242Z" fill="white" stroke="#031F43" stroke-width="3.85409" stroke-miterlimit="10" stroke-linecap="round" stroke-linejoin="round"/>
<path d="M754.284 539.432C754.284 539.432 817.568 546.581 822.579 545.733C827.589 544.904 835.124 537.1 861.023 546.003C886.942 554.925 920.646 589.747 920.646 589.747C920.646 589.747 903.38 614.818 888.599 625.127C873.838 635.437 854.336 646.306 854.336 646.306L707.515 683.633L691.347 642.953C691.347 642.953 669.61 640.158 652.054 629.579C634.499 618.999 618.061 617.593 617.791 616.475C617.522 615.357 626.001 590.672 642.689 572.731C654.444 560.109 665.948 555.484 678.204 551.302C690.46 547.121 697.59 546.928 707.977 544.692C728.365 540.299 754.284 539.432 754.284 539.432Z" fill="#A7CCE9"/>
<path d="M705.682 645.572C705.682 645.572 744.627 650.871 784.575 645.996C824.523 641.12 863.025 627.477 863.025 627.477C863.025 627.477 862.543 715.658 860.597 733.194C858.651 750.73 856.434 762.216 857.263 778.692C858.092 795.168 855.606 801.354 865.916 813.302C876.206 825.249 879.096 833.073 879.096 839.259C879.096 845.445 879.501 850.378 879.501 850.378C879.501 850.378 916.982 847.911 960.244 850.783C1003.51 853.654 1030.27 849.549 1046.75 868.492C1063.23 887.435 1056.23 928.231 1050.87 936.883C1045.52 945.535 1032.84 952.107 1007.11 960.759C958.876 976.985 884.3 986.755 884.3 986.755L859.306 921.216C859.306 921.216 791.339 963.65 758.367 958.697C725.415 953.745 694.505 935.207 688.338 926.573C682.152 917.921 666.505 905.973 666.505 905.973L656.619 912.968C656.619 912.968 660.743 891.964 659.914 889.478C659.086 887.011 653.728 874.235 631.086 874.235C608.424 874.235 592.429 887.589 592.429 887.589L593.181 900.77C593.181 900.77 580.809 894.854 579.576 884.544C578.342 874.254 584.528 854.463 588.633 835.52C592.737 816.578 600.581 771.253 601.814 758.477C603.047 745.701 605.514 718.934 612.528 708.22C619.523 697.505 644.652 680.624 671.033 690.086C697.395 699.567 702.753 743.639 702.753 743.639L705.682 645.572Z" fill="#347CE1" stroke="#231F20" stroke-width="3.85409" stroke-miterlimit="10" stroke-linecap="round" stroke-linejoin="round"/>
<path d="M859.301 921.254C859.301 921.254 874.428 905.933 907.978 892.964C941.528 879.995 950.045 878.646 950.045 878.646" stroke="#031F43" stroke-width="3.85409" stroke-linecap="round" stroke-linejoin="round"/>
<path d="M666.5 906.013C666.5 906.013 675.75 897.437 676.193 891.174C676.636 884.911 674.844 878.649 674.844 878.649C674.844 878.649 686.021 828.526 688.719 817.792C691.397 807.059 691.86 798.561 691.86 798.561" stroke="#031F43" stroke-width="3.85409" stroke-linecap="round" stroke-linejoin="round"/>
<path d="M879.508 850.399C879.508 850.399 874.999 853.83 859.794 845.505C844.59 837.18 831.968 834.598 831.968 834.598" stroke="#031F43" stroke-width="3.85409" stroke-linecap="round" stroke-linejoin="round"/>
<path d="M674.638 877.762C674.638 877.762 664.154 858.703 643.535 854.078C622.916 849.454 610.004 852.845 603.838 855.312" stroke="#031F43" stroke-width="3.85409" stroke-linecap="round" stroke-linejoin="round"/>
<path d="M950.395 877.858C950.395 877.858 927.309 875.064 909.85 878.571C892.391 882.059 824.27 882.946 804.614 885.99C784.958 889.054 766.632 887.744 754.838 876.374C743.045 865.024 746.976 858.915 735.626 845.811C724.275 832.708 711.615 806.076 708.551 794.282C708.551 794.282 704.697 757.206 702.77 743.697" stroke="#031F43" stroke-width="3.85409" stroke-linecap="round" stroke-linejoin="round"/>
<path d="M748.559 998.836C748.559 998.836 781.376 995.194 813.134 992.592C844.911 989.991 881.814 989.374 886.574 985.27C893.434 979.373 890.312 960.411 882.874 944.956C875.435 929.501 863.661 917.592 863.661 917.592C863.661 917.592 798.026 948.328 776.674 950.93C755.323 953.531 742.296 949.889 742.296 949.889C742.296 949.889 729.789 956.133 731.87 963.436C733.971 970.72 748.559 998.836 748.559 998.836Z" fill="white" stroke="#031F43" stroke-width="3.85409" stroke-miterlimit="10" stroke-linecap="round" stroke-linejoin="round"/>
<path d="M743.643 963.131C744.337 965.193 758.481 967.968 759.503 979.337C760.524 990.707 750.869 1006.93 750.869 1006.93C750.869 1006.93 726.03 1006.93 716.375 1008.65C706.721 1010.38 673.942 1021.93 667.39 1024.01C660.838 1026.09 648.042 1038.84 639.409 1033.33C630.776 1027.82 608.865 1008.82 626.112 984.328C643.359 959.836 659.123 961.05 673.267 952.417C687.412 943.783 697.76 929.658 702.578 928.964C707.414 928.271 744.664 943.456 748.114 948.62C751.582 953.804 743.643 963.131 743.643 963.131Z" fill="#E72A8B"/>
<path d="M712.122 934.07C712.122 934.07 695.357 951.915 680.056 960.664C664.756 969.412 651.286 976.33 647.277 980.339" stroke="#031F43" stroke-width="3.85409" stroke-miterlimit="10" stroke-linecap="round" stroke-linejoin="round"/>
<path d="M730.213 976.002C730.213 976.002 740.079 984.5 732.41 1000.69" stroke="#031F43" stroke-width="3.85409" stroke-miterlimit="10" stroke-linecap="round" stroke-linejoin="round"/>
<path d="M716.243 978.199C716.243 978.199 726.11 986.697 718.44 1002.88" stroke="#031F43" stroke-width="3.85409" stroke-miterlimit="10" stroke-linecap="round" stroke-linejoin="round"/>
<path d="M702.25 982.322C702.25 982.322 712.116 990.821 704.447 1007.01" stroke="#031F43" stroke-width="3.85409" stroke-miterlimit="10" stroke-linecap="round" stroke-linejoin="round"/>
<path d="M659.069 891.192L646.042 1017.91L603.088 1014.47L591.931 885.353C591.931 885.353 599.658 866.815 636.021 872.692C661.092 876.758 659.069 891.192 659.069 891.192Z" fill="white" stroke="#031F43" stroke-width="3.85409" stroke-miterlimit="10" stroke-linecap="round" stroke-linejoin="round"/>
<path d="M652.63 1031.96C652.63 1031.96 650.703 999.012 628.234 998.415C605.765 997.817 600.735 1009.42 599.29 1019.77C597.844 1030.11 588.691 1084.75 584.162 1103.75C579.634 1122.75 584.875 1149.09 608.501 1153.91C632.127 1158.73 643.901 1146.51 650.048 1113.19C656.138 1079.89 652.63 1031.96 652.63 1031.96Z" fill="#E72A8B"/>
<path d="M636.867 1040.23C636.867 1040.23 624.033 1027.8 608.443 1037.09" stroke="#031F43" stroke-width="3.85409" stroke-miterlimit="10" stroke-linecap="round" stroke-linejoin="round"/>
<path d="M635.965 1054.53C635.965 1054.53 623.131 1042.1 607.541 1051.39" stroke="#031F43" stroke-width="3.85409" stroke-miterlimit="10" stroke-linecap="round" stroke-linejoin="round"/>
<path d="M634.44 1070.08C634.44 1070.08 621.605 1057.65 606.016 1066.94" stroke="#031F43" stroke-width="3.85409" stroke-miterlimit="10" stroke-linecap="round" stroke-linejoin="round"/>
<path d="M647.217 1123.92C647.217 1123.92 642.476 1145.29 613.166 1143.56C583.875 1141.82 583.22 1114.73 583.22 1114.73" stroke="#031F43" stroke-width="3.85409" stroke-miterlimit="10" stroke-linecap="round" stroke-linejoin="round"/>
<path d="M698.673 546.215C698.673 546.215 707.711 555.657 715.091 586.028C722.472 616.398 724.129 632.836 724.129 632.836L701.14 636.94C701.14 636.94 697.035 601.637 690.868 582.347C684.702 563.057 677.321 551.553 677.321 551.553L698.673 546.215Z" fill="#347CE1" stroke="#231F20" stroke-width="3.85409" stroke-miterlimit="10" stroke-linecap="round" stroke-linejoin="round"/>
<path d="M837.996 539.355C837.996 539.355 846.224 544.481 853.605 574.871C860.986 605.241 862.643 621.679 862.643 621.679L839.653 625.783C839.653 625.783 835.549 590.48 829.382 571.19C823.216 551.901 815.835 540.396 815.835 540.396L837.996 539.355Z" fill="#347CE1" stroke="#231F20" stroke-width="3.85409" stroke-miterlimit="10" stroke-linecap="round" stroke-linejoin="round"/>
<path d="M729.62 680.318C729.62 680.318 760.492 680.78 787.682 677.562C807.839 675.172 847.132 667.426 847.132 667.426C847.132 667.426 846.669 725.95 843.913 737.936C841.158 749.923 835.165 758.209 824.566 759.596C813.967 760.984 737.078 765.667 731.008 759.596C722.702 751.291 729.62 680.318 729.62 680.318Z" stroke="#031F43" stroke-width="3.85409" stroke-linecap="round" stroke-linejoin="round"/>
<path d="M721.12 667.002C725.101 667.002 728.327 663.775 728.327 659.795C728.327 655.815 725.101 652.588 721.12 652.588C717.14 652.588 713.913 655.815 713.913 659.795C713.913 663.775 717.14 667.002 721.12 667.002Z" fill="white" stroke="#031F43" stroke-width="3.85409" stroke-miterlimit="10" stroke-linecap="round" stroke-linejoin="round"/>
<path d="M850.846 652.412C854.826 652.412 858.053 649.186 858.053 645.205C858.053 641.225 854.826 637.998 850.846 637.998C846.865 637.998 843.639 641.225 843.639 645.205C843.639 649.186 846.865 652.412 850.846 652.412Z" fill="white" stroke="#031F43" stroke-width="3.85409" stroke-miterlimit="10" stroke-linecap="round" stroke-linejoin="round"/>
<path d="M835.554 425.348C835.554 425.348 869.932 455.236 853.764 486.686C831.661 529.678 850.161 553.111 850.161 553.111C850.161 553.111 840.988 562.63 813.759 560.646C800.308 559.682 779.342 542.551 779.342 542.551C779.342 542.551 779.38 534.206 789.767 532.511C800.905 530.699 808.209 528.907 815.281 517.923C836.748 484.527 835.554 425.348 835.554 425.348Z" fill="#031F43"/>
<path d="M757.79 478.399C757.79 478.399 759.37 444.426 777.581 436.332C795.811 428.238 831.577 434.54 834.275 452.982C836.972 471.423 827.992 502.699 822.577 513.279C812.461 533.07 794.635 532.858 794.635 532.858C794.635 532.858 793.999 546.578 790.184 550.182C786.368 553.785 779.604 558.95 767.907 556.927C756.21 554.903 749.465 550.394 748.56 543.88C747.654 537.367 752.086 508.288 750.776 505.725C749.465 503.162 736.631 496.649 738.674 486.069C740.697 475.49 743.8 472.599 749.562 472.483C755.324 472.348 757.578 477.763 757.578 477.763L757.79 478.399Z" fill="white"/>
<path d="M760.217 463.196C763.05 452.443 776.828 445.023 787.292 448.743C791.397 450.207 795.925 452.539 800.685 456.181C819.724 470.769 847.069 464.063 847.069 464.063C847.069 464.063 854.739 446.623 843.581 421.552C830.998 393.263 776.212 384.148 750.621 404.806C723.276 426.871 728.19 445.274 703.312 464.583C668.49 491.619 668.027 514.378 668.027 514.378C668.027 514.378 695.218 531.471 709.709 545.423C731.581 566.466 747.229 538.1 747.229 538.1L751.025 504.723C751.025 504.723 741.467 497.015 740.234 488.517C738.287 475.105 744.994 472.696 747.884 472.542C750.833 472.388 757.365 479.595 757.365 479.595L760.217 463.196Z" fill="#031F43"/>
<path d="M758.658 482.331C758.658 482.331 757.174 473.236 749.543 472.446C741.931 471.656 736.979 482.37 739.657 490.001C741.565 495.455 746.537 499.945 749.216 502.084C750.314 502.951 750.892 504.319 750.777 505.706L748.098 534.708C747.231 544.074 753.205 552.746 762.281 555.154C764.594 555.771 767.137 556.272 769.893 556.58C771.858 556.792 773.882 556.85 775.847 556.812C784.866 556.58 792.42 549.894 794.058 541.01C794.54 538.389 797.315 534.342 794.655 534.67C775.25 537.04 769.546 524.11 769.739 523.551" stroke="#031F43" stroke-width="3.85409" stroke-miterlimit="10" stroke-linecap="round" stroke-linejoin="round"/>
<path d="M806.291 487.166C805.925 491.463 805.925 500.058 805.925 500.058C805.925 500.058 798.91 501.812 795.596 498.728" stroke="#031F43" stroke-width="3.85409" stroke-miterlimit="10" stroke-linecap="round" stroke-linejoin="round"/>
<path d="M784.826 473.139C784.826 473.139 787.254 478.689 794.905 477.263" stroke="#031F43" stroke-width="3.85409" stroke-miterlimit="10" stroke-linecap="round" stroke-linejoin="round"/>
<path d="M814.345 481.867C814.345 481.867 817.351 487.109 824.828 484.873" stroke="#031F43" stroke-width="3.85409" stroke-miterlimit="10" stroke-linecap="round" stroke-linejoin="round"/>
<path d="M784.247 506.959L804.095 513.183C804.095 513.183 799.991 521.759 791.049 519.061C782.243 516.402 784.247 506.959 784.247 506.959Z" stroke="#031F43" stroke-width="3.85409" stroke-miterlimit="10" stroke-linecap="round" stroke-linejoin="round"/>
<path d="M786.925 490.269C795.631 490.269 802.689 483.211 802.689 474.505C802.689 465.8 795.631 458.742 786.925 458.742C778.22 458.742 771.162 465.8 771.162 474.505C771.162 483.211 778.22 490.269 786.925 490.269Z" stroke="#031F43" stroke-width="3.85409" stroke-miterlimit="10" stroke-linecap="round" stroke-linejoin="round"/>
<path d="M823.351 499.308C832.057 499.308 839.114 492.25 839.114 483.544C839.114 474.839 832.057 467.781 823.351 467.781C814.645 467.781 807.588 474.839 807.588 483.544C807.588 492.25 814.645 499.308 823.351 499.308Z" stroke="#031F43" stroke-width="3.85409" stroke-miterlimit="10" stroke-linecap="round" stroke-linejoin="round"/>
<path d="M708.514 783.722C708.514 783.722 743.046 794.513 746.457 801.759C749.868 809.005 752.836 819.43 756.458 822.417C760.081 825.404 779.024 832.63 784.979 834.769C790.933 836.889 799.239 833.709 806.697 831.57C814.154 829.451 816.274 823.901 817.989 819.854C819.704 815.807 825.235 805.594 822.46 803.455C819.685 801.335 815.426 802.395 812.882 805.806C810.319 809.217 801.59 815.171 797.562 816.019C793.535 816.867 783.726 808.137 778.407 801.971C773.089 795.804 769.89 793.665 769.89 793.665L771.104 779.559C771.104 779.559 776.866 782.064 781.471 784.743C786.077 787.422 793.169 786.882 796.059 781.101C798.121 776.977 792.417 775.532 786.463 770.541C780.508 765.55 773.59 758.632 768.792 756.146C763.993 753.641 755.167 759.017 751.699 759.017C748.23 759.017 732.563 754.469 732.563 754.469C732.563 754.469 720.962 740.036 719.151 734.37C717.339 728.705 711.924 703.961 708.321 690.819C704.717 677.676 691.324 642.99 691.324 642.99L631.509 620.713C631.509 620.713 644.921 677.156 650.587 687.215C650.587 687.215 687.644 687.331 696.913 723.945C701.037 740.132 708.514 783.722 708.514 783.722Z" fill="white" stroke="#031F43" stroke-width="3.85409" stroke-miterlimit="10" stroke-linecap="round" stroke-linejoin="round"/>
<path d="M757.121 809.832C757.121 809.832 777.991 831.762 785.005 834.749" stroke="#031F43" stroke-width="3.85409" stroke-miterlimit="10" stroke-linecap="round" stroke-linejoin="round"/>
<path d="M771.106 779.561C771.029 781.353 775.77 794.09 784.634 807.927C793.499 821.763 811.42 836.004 811.42 836.004L805.813 819.373C805.813 819.373 813.598 828.662 817.259 836.659C820.94 844.656 822.867 847.238 822.867 847.238C822.867 847.238 823.291 834.713 819.629 826.503C815.949 818.294 792.728 785.592 792.728 785.592C792.728 785.592 788.276 788.56 781.493 784.744C774.71 780.929 771.106 779.561 771.106 779.561Z" fill="#4D4F51" stroke="#031F43" stroke-width="3.85409" stroke-miterlimit="10" stroke-linecap="round" stroke-linejoin="round"/>
<path d="M1301.18 992.499C1301.18 992.499 1300.21 811.356 1231.8 710.186C1163.39 609.016 1094.98 621.542 1094.98 621.542" stroke="#031F43" stroke-width="3.85409" stroke-miterlimit="10" stroke-linecap="round" stroke-linejoin="round"/>
<path d="M1084.52 1045.72C1084.52 1045.72 1103.56 943.283 1184.15 915.707C1264.74 888.131 1289.93 956.309 1289.93 956.309" stroke="#031F43" stroke-width="3.85409" stroke-miterlimit="10" stroke-linecap="round" stroke-linejoin="round"/>
<path d="M1123.21 1059.06C1123.21 1059.06 1119.28 1091.2 1102.38 1101.94C1089.3 1110.24 1070.8 1108.78 1060.47 1098.3C1048.17 1085.81 1057.69 1057.63 1057.69 1057.63L1123.21 1059.06Z" fill="#45D62F" stroke="#031F43" stroke-width="3.85409" stroke-linecap="round" stroke-linejoin="round"/>
<path d="M1034.84 1047.65C1034.84 1047.65 1059.82 1054.73 1074.27 1090.3C1080.21 1104.92 1076.89 1122.09 1069.07 1137.95C1061.26 1153.81 1064.96 1158.44 1072.71 1161.1C1080.46 1163.76 1093.37 1154.05 1098.2 1129.96C1103.04 1105.87 1100.03 1075.06 1082.67 1051.12C1069.38 1032.78 1040.82 1019 1011.33 1016.53" fill="white"/>
<path d="M1034.84 1047.65C1034.84 1047.65 1059.82 1054.73 1074.27 1090.3C1080.21 1104.92 1076.89 1122.09 1069.07 1137.95C1061.26 1153.81 1064.96 1158.44 1072.71 1161.1C1080.46 1163.76 1093.37 1154.05 1098.2 1129.96C1103.04 1105.87 1100.03 1075.06 1082.67 1051.12C1069.38 1032.78 1040.82 1019 1011.33 1016.53" stroke="#031F43" stroke-width="3.85409" stroke-miterlimit="10" stroke-linecap="round" stroke-linejoin="round"/>
<path d="M1051.03 1053.45L1050.8 1079.79L1061.8 1069.56L1051.03 1053.45Z" fill="white" stroke="#031F43" stroke-width="3.85409" stroke-miterlimit="10" stroke-linecap="round" stroke-linejoin="round"/>
<path d="M1057.43 1062.08L1058.76 1088.39L1069.13 1077.52L1057.43 1062.08Z" fill="white" stroke="#031F43" stroke-width="3.85409" stroke-miterlimit="10" stroke-linecap="round" stroke-linejoin="round"/>
<path d="M1065.62 1071.37L1069.32 1097.46L1078.67 1085.69L1065.62 1071.37Z" fill="white" stroke="#031F43" stroke-width="3.85409" stroke-miterlimit="10" stroke-linecap="round" stroke-linejoin="round"/>
<path d="M1075.48 1073.4L1081.75 1098.99L1089.9 1086.37L1075.48 1073.4Z" fill="white" stroke="#031F43" stroke-width="3.85409" stroke-miterlimit="10" stroke-linecap="round" stroke-linejoin="round"/>
<path d="M1085.86 1072.09L1094.18 1097.08L1101.27 1083.84L1085.86 1072.09Z" fill="white" stroke="#031F43" stroke-width="3.85409" stroke-miterlimit="10" stroke-linecap="round" stroke-linejoin="round"/>
<path d="M1094.13 1067.58L1107.43 1090.33L1111.63 1075.9L1094.13 1067.58Z" fill="white" stroke="#031F43" stroke-width="3.85409" stroke-miterlimit="10" stroke-linecap="round" stroke-linejoin="round"/>
<path d="M1101.42 1061.45L1119.73 1080.37L1120.38 1065.36L1101.42 1061.45Z" fill="white" stroke="#031F43" stroke-width="3.85409" stroke-miterlimit="10" stroke-linecap="round" stroke-linejoin="round"/>
<path d="M1056.15 1022.68C1056.15 1022.68 1039.6 1063.51 1067.89 1082.59C1096.18 1101.67 1123.22 1059.08 1123.22 1059.08L1056.15 1022.68Z" fill="#45D62F" stroke="#031F43" stroke-width="3.85409" stroke-linecap="round" stroke-linejoin="round"/>
<path d="M1063.98 1040.04C1063.98 1040.04 1062.53 1053.84 1075.91 1050.45" stroke="#031F43" stroke-width="3.85409" stroke-miterlimit="10" stroke-linecap="round" stroke-linejoin="round"/>
<path d="M1086.93 1054.16C1086.93 1054.16 1089.05 1067.88 1101.11 1061.18" stroke="#031F43" stroke-width="3.85409" stroke-miterlimit="10" stroke-linecap="round" stroke-linejoin="round"/>
<path d="M1114.56 612.043C1114.94 614.317 1128.07 677.736 1122.73 683.074C1117.39 688.412 1102.92 692.863 1099.58 693.307C1096.25 693.75 1076.56 672.456 1071.6 661.973C1066.65 651.47 1114.56 612.043 1114.56 612.043Z" fill="#45D62F" stroke="#031F43" stroke-width="3.85409" stroke-linecap="round" stroke-linejoin="round"/>
<path d="M1060.95 660.684L1079.93 678.952L1080.04 663.921L1060.95 660.684Z" fill="white" stroke="#031F43" stroke-width="3.85409" stroke-miterlimit="10" stroke-linecap="round" stroke-linejoin="round"/>
<path d="M1071.6 661.955L1092.83 680.223L1090.87 664.036L1071.6 661.955Z" fill="white" stroke="#031F43" stroke-width="3.85409" stroke-miterlimit="10" stroke-linecap="round" stroke-linejoin="round"/>
<path d="M1084 662.377L1105.5 677.581L1103.37 662.724L1084 662.377Z" fill="white" stroke="#031F43" stroke-width="3.85409" stroke-miterlimit="10" stroke-linecap="round" stroke-linejoin="round"/>
<path d="M1092.24 656.596L1115.15 669.584L1111.55 654.996L1092.24 656.596Z" fill="white" stroke="#031F43" stroke-width="3.85409" stroke-miterlimit="10" stroke-linecap="round" stroke-linejoin="round"/>
<path d="M1110.83 689.202L1099.25 680.029L1101.14 692.979L1110.83 689.202Z" fill="white" stroke="#031F43" stroke-width="3.85409" stroke-miterlimit="10" stroke-linecap="round" stroke-linejoin="round"/>
<path d="M1121.41 683.923L1110.29 675.367L1112.18 688.298L1121.41 683.923Z" fill="white" stroke="#031F43" stroke-width="3.85409" stroke-miterlimit="10" stroke-linecap="round" stroke-linejoin="round"/>
<path d="M1098.39 648.158L1122.28 659.258L1117.5 644.998L1098.39 648.158Z" fill="white" stroke="#031F43" stroke-width="3.85409" stroke-miterlimit="10" stroke-linecap="round" stroke-linejoin="round"/>
<path d="M1100.8 639.022L1126.46 644.958L1118.85 632.008L1100.8 639.022Z" fill="white" stroke="#031F43" stroke-width="3.85409" stroke-miterlimit="10" stroke-linecap="round" stroke-linejoin="round"/>
<path d="M1101.34 629.523L1127.18 631.334L1115.83 615.205L1101.34 629.523Z" fill="white" stroke="#031F43" stroke-width="3.85409" stroke-miterlimit="10" stroke-linecap="round" stroke-linejoin="round"/>
<path d="M1042.06 635.842C1042.06 635.842 1060.41 675.905 1093.71 668.409C1127.01 660.893 1114.56 612.023 1114.56 612.023L1042.06 635.842Z" fill="#45D62F" stroke="#031F43" stroke-width="3.85409" stroke-linecap="round" stroke-linejoin="round"/>
<path d="M1060.06 642.087C1060.06 642.087 1069.12 652.608 1075.82 640.545" stroke="#031F43" stroke-width="3.85409" stroke-miterlimit="10" stroke-linecap="round" stroke-linejoin="round"/>
<path d="M1086.1 635.072C1086.1 635.072 1097.52 642.934 1100.93 629.561" stroke="#031F43" stroke-width="3.85409" stroke-miterlimit="10" stroke-linecap="round" stroke-linejoin="round"/>
<path d="M805.522 1108.01C805.522 1108.01 784.229 1119.97 751.353 1117.45C725.704 1115.48 714.065 1108.32 709.228 1115.12C704.41 1121.9 711.251 1131.21 736.823 1137.53C757.385 1142.6 777.445 1146.74 805.831 1139.26C829.418 1133.06 848.438 1121.3 848.438 1121.3C848.438 1121.3 897.905 1127.49 920.182 1123.94" stroke="#031F43" stroke-width="3.85409" stroke-miterlimit="10" stroke-linecap="round" stroke-linejoin="round"/>
<path d="M960.802 1060.39C959.857 1061.1 946.85 1061.51 946.002 1080.78C945.154 1100.05 952.92 1110.68 952.92 1110.68C952.92 1110.68 922.8 1113.71 921.702 1123.21C920.623 1132.71 944.267 1129.45 971.574 1128.12C1001.71 1126.66 1012.23 1121.8 1022.97 1110.84C1028.25 1105.46 1044.18 1074.09 1032.83 1046.4C1021.48 1018.71 996.471 1003.68 961.187 1001.69C912.78 998.973 866.184 1021.42 860.441 1023.7C854.698 1025.97 799.45 1076.09 780.642 1077.5C761.834 1078.91 731.04 1073.88 722.175 1072.39C706.894 1069.85 703.753 1083.19 707.299 1088.2C710.844 1093.21 731.04 1105.44 777.925 1103.57L793.457 1112.15" stroke="#031F43" stroke-width="3.85409" stroke-miterlimit="10" stroke-linecap="round" stroke-linejoin="round"/>
<path d="M886.518 1014.49C886.518 1014.49 916.387 1026.76 920.087 1053.7" stroke="#031F43" stroke-width="3.85409" stroke-miterlimit="10" stroke-linecap="round" stroke-linejoin="round"/>
<path d="M907.541 1007.28C907.541 1007.28 935.252 1018.42 938.933 1045.36" stroke="#031F43" stroke-width="3.85409" stroke-miterlimit="10" stroke-linecap="round" stroke-linejoin="round"/>
<path d="M928.949 1004.52C928.949 1004.52 953.481 1012.69 957.18 1039.63" stroke="#031F43" stroke-width="3.85409" stroke-miterlimit="10" stroke-linecap="round" stroke-linejoin="round"/>
<path d="M804.505 1012.71C807.087 1013.23 809.149 1010.58 808.07 1008.19C803.58 998.3 794.696 980.706 787.739 979.3C778.027 977.315 777.564 1003.77 777.564 1003.77C777.564 1003.77 778.759 1013.7 790.938 1012.29C796.565 1011.6 801.152 1012.02 804.505 1012.71Z" fill="#4D4F51" stroke="#031F43" stroke-width="3.85409" stroke-miterlimit="10"/>
<path d="M763.247 1043.11C763.96 1035.46 770.165 990.921 817.956 995.527C855.784 999.169 867.808 1027.86 868.001 1049.91C868.136 1064.53 862.47 1073.11 853.837 1078.64C835.472 1090.4 817.397 1091.72 797.857 1088.08C778.104 1084.38 760.626 1071.45 763.247 1043.11Z" fill="white" stroke="#031F43" stroke-width="3.85409" stroke-miterlimit="10" stroke-linecap="round" stroke-linejoin="round"/>
<path d="M776.749 1011.81C776.749 1011.81 778.695 1023.74 796.79 1026.78C814.885 1029.83 823.229 1028.05 836.006 1038.79C855.97 1055.57 866.125 1046.19 866.125 1046.19C866.125 1046.19 865.509 1010.38 830.571 999.573C809.412 993.021 794.825 999.187 791.298 1000.77C781.779 1005.06 776.749 1011.81 776.749 1011.81Z" fill="#808080"/>
<path d="M793.632 1056.65L798.97 1051.85C800.069 1050.81 799.529 1048.98 798.065 1048.67L792.245 1047.48C790.645 1047.15 789.412 1048.9 790.279 1050.29L793.632 1056.65Z" fill="#031F43"/>
<path d="M836.417 1049.75C836.417 1049.75 821.984 1045.18 813.986 1050.23" stroke="#031F43" stroke-width="3.85409" stroke-miterlimit="10" stroke-linecap="round" stroke-linejoin="round"/>
<path d="M826.167 1057.85C826.167 1057.85 819.634 1054.55 812.466 1057.04" stroke="#031F43" stroke-width="3.85409" stroke-miterlimit="10" stroke-linecap="round" stroke-linejoin="round"/>
<path d="M758.408 1034.16C758.408 1034.16 772.88 1035.86 780.589 1044.15" stroke="#031F43" stroke-width="3.85409" stroke-miterlimit="10" stroke-linecap="round" stroke-linejoin="round"/>
<path d="M766.736 1044.89C766.736 1044.89 773.847 1045.28 779.647 1049.85" stroke="#031F43" stroke-width="3.85409" stroke-miterlimit="10" stroke-linecap="round" stroke-linejoin="round"/>
<path d="M819.225 1006.36C819.225 1006.36 812.461 1009.88 810.129 1017.38" stroke="#031F43" stroke-width="3.85409" stroke-miterlimit="10" stroke-linecap="round" stroke-linejoin="round"/>
<path d="M809.838 1003.73C809.838 1003.73 803.729 1008.32 802.631 1016.09" stroke="#031F43" stroke-width="3.85409" stroke-miterlimit="10" stroke-linecap="round" stroke-linejoin="round"/>
<path d="M799.553 1001.83C799.553 1001.83 794.138 1007.2 794.138 1015.07" stroke="#031F43" stroke-width="3.85409" stroke-miterlimit="10" stroke-linecap="round" stroke-linejoin="round"/>
<path d="M849.327 1029.77C851.331 1031.46 854.434 1030.1 854.627 1027.48C855.378 1016.65 855.956 996.951 850.522 992.384C842.93 986.025 829.922 1009.05 829.922 1009.05C829.922 1009.05 826.241 1018.36 837.611 1022.91C842.891 1025.01 846.707 1027.57 849.327 1029.77Z" fill="#4D4F51" stroke="#031F43" stroke-width="3.85409" stroke-miterlimit="10"/>
<path d="M845.373 1002.23C845.373 1002.23 848.476 1008.82 847.107 1017.84" stroke="#031F43" stroke-width="3.85409" stroke-miterlimit="10" stroke-linecap="round" stroke-linejoin="round"/>
<path d="M813.641 1036.67C813.641 1036.67 810.712 1030.48 805.683 1034.59" stroke="#031F43" stroke-width="3.85409" stroke-miterlimit="10" stroke-linecap="round" stroke-linejoin="round"/>
<path d="M792.382 1031.27C792.382 1031.27 789.415 1025.53 784.616 1029.27" stroke="#031F43" stroke-width="3.85409" stroke-miterlimit="10" stroke-linecap="round" stroke-linejoin="round"/>
<path d="M807.63 1047.17C809.258 1047.17 810.578 1045.85 810.578 1044.22C810.578 1042.59 809.258 1041.27 807.63 1041.27C806.002 1041.27 804.682 1042.59 804.682 1044.22C804.682 1045.85 806.002 1047.17 807.63 1047.17Z" fill="#031F43"/>
<path d="M787.16 1041.85C788.789 1041.85 790.109 1040.53 790.109 1038.9C790.109 1037.28 788.789 1035.96 787.16 1035.96C785.532 1035.96 784.212 1037.28 784.212 1038.9C784.212 1040.53 785.532 1041.85 787.16 1041.85Z" fill="#031F43"/>
<path d="M792.96 1071.41C796.27 1071.41 798.953 1068.73 798.953 1065.42C798.953 1062.11 796.27 1059.43 792.96 1059.43C789.65 1059.43 786.967 1062.11 786.967 1065.42C786.967 1068.73 789.65 1071.41 792.96 1071.41Z" stroke="#031F43" stroke-width="3.85409" stroke-miterlimit="10" stroke-linecap="round" stroke-linejoin="round"/>
<path d="M848.439 1121.3C848.439 1121.3 863.432 1113.59 869.907 1099.06" stroke="#031F43" stroke-width="3.85409" stroke-miterlimit="10" stroke-linecap="round" stroke-linejoin="round"/>
<path d="M1309.5 1051.43H1240.09C1224.6 1051.43 1212.05 1038.88 1212.05 1023.39V965.751C1212.05 950.258 1224.6 937.713 1240.09 937.713H1309.5C1324.99 937.713 1337.54 950.258 1337.54 965.751V1023.39C1337.54 1038.88 1324.98 1051.43 1309.5 1051.43Z" fill="#F3B63F"/>
<path d="M1066 679.855C1066 679.855 1057.96 738.033 1067.85 737.397C1077.75 736.78 1066 679.855 1066 679.855Z" stroke="#031F43" stroke-width="3.85409" stroke-miterlimit="10" stroke-linecap="round" stroke-linejoin="round"/>
<path d="M1100.03 708.934C1100.03 708.934 1093.23 800.526 1103.13 799.909C1113.02 799.274 1100.03 708.934 1100.03 708.934Z" stroke="#031F43" stroke-width="3.85409" stroke-miterlimit="10" stroke-linecap="round" stroke-linejoin="round"/>
<path d="M1142.16 732.617C1142.16 732.617 1176.63 781.506 1223.69 811.934C1262.48 837.025 1288.84 909.077 1287.69 944.592C1286.53 980.108 1293.41 896.474 1255.6 885.008C1217.79 873.542 1184.55 858.646 1163.93 824.267C1143.31 789.928 1142.16 732.617 1142.16 732.617Z" fill="#45D62F" stroke="#031F43" stroke-width="3.85409" stroke-linecap="round" stroke-linejoin="round"/>
<path d="M1166.95 791.201C1166.95 791.201 1177.34 816.118 1220.24 843.79C1263.13 871.463 1272.83 885.299 1282.5 912.99" stroke="#031F43" stroke-width="3.85409" stroke-miterlimit="10" stroke-linecap="round" stroke-linejoin="round"/>
<path d="M1333.9 969.914H1216.62C1210.03 969.914 1204.69 964.576 1204.69 957.986V943.88C1204.69 937.289 1210.03 931.951 1216.62 931.951H1333.9C1340.49 931.951 1345.83 937.289 1345.83 943.88V957.986C1345.83 964.576 1340.49 969.914 1333.9 969.914Z" fill="#F3B63F"/>
<path d="M1221.69 617.342C1221.69 617.342 1229.13 640.659 1233.6 667.426C1238.07 694.173 1246.6 714.85 1253.16 738.11C1259.69 761.369 1266.13 779.965 1266.13 779.965C1266.13 779.965 1275.9 726.066 1269.56 687.332C1263.22 648.56 1221.69 617.342 1221.69 617.342Z" fill="#45D62F" stroke="#031F43" stroke-width="3.85409" stroke-linecap="round" stroke-linejoin="round"/>
<path d="M1249.13 671.107C1249.13 671.107 1259.42 762.7 1264.81 779.041" stroke="#031F43" stroke-width="3.85409" stroke-miterlimit="10" stroke-linecap="round" stroke-linejoin="round"/>
<path d="M897.042 687.101C897.042 687.101 895.539 679.624 892.745 680.375C889.951 681.127 889.392 685.598 884.902 689.336C880.412 693.075 873.128 698.297 869.967 704.463C866.788 710.63 863.608 715.852 864.359 723.695C865.111 731.538 862.49 739.574 860.814 744.796C859.137 750.019 852.604 757.303 856.324 765.339C860.062 773.375 866.961 782.335 873.686 783.838C880.412 785.341 891.993 777.672 895.905 772.064C899.817 766.456 905.425 760.675 905.984 754.701C906.543 748.728 907.487 742.195 907.487 742.195C907.487 742.195 912.709 740.518 915.33 736.221C917.951 731.924 919.434 725.391 919.627 723.888C919.82 722.385 923.558 720.708 924.117 716.238C924.676 711.767 919.068 708.761 919.068 708.761C919.068 708.761 922.807 704.271 921.862 700.725C920.938 697.179 913.268 695.117 913.268 695.117C913.268 695.117 921.149 693.036 922.46 687.987C923.77 682.938 923.539 677.735 919.627 677.735C915.715 677.735 912.709 677.543 909.163 679.604C905.618 681.686 897.042 687.101 897.042 687.101Z" fill="white"/>
<path d="M906.25 741.405C906.25 741.405 905.653 758.884 899.159 767.42C892.664 775.957 882.47 785.034 874.685 784.301C866.9 783.569 856.32 772.797 855.222 762.796C854.104 752.775 863.2 740.172 864.684 737.204C866.167 734.237 863.759 722.925 865.05 713.29C866.341 703.655 872.103 699.762 877.479 695.85C882.856 691.957 886.19 687.313 887.307 684.538C888.425 681.763 889.716 679.894 892.491 680.646C895.266 681.378 896.017 686.774 896.017 686.774" stroke="#031F43" stroke-width="3.85409" stroke-miterlimit="10" stroke-linecap="round" stroke-linejoin="round"/>
<path d="M912.305 678.177C912.305 678.177 899.278 684.228 896.157 690.279C894.037 694.384 894.865 698.161 900.011 697.255C905.156 696.33 918.356 693.035 921.478 688.815C924.6 684.595 923.309 680.008 920.919 678.91C918.549 677.792 912.305 678.177 912.305 678.177Z" fill="white" stroke="#031F43" stroke-width="3.85409" stroke-miterlimit="10" stroke-linecap="round" stroke-linejoin="round"/>
<path d="M910.646 696.156C910.646 696.156 890.104 704.231 886.982 710.281C884.862 714.386 887.348 719.82 892.493 718.895C897.639 717.97 916.716 711.014 919.838 706.794C922.96 702.573 921.669 697.987 919.279 696.888C916.89 695.79 910.646 696.156 910.646 696.156Z" fill="white" stroke="#031F43" stroke-width="3.85409" stroke-miterlimit="10" stroke-linecap="round" stroke-linejoin="round"/>
<path d="M886.978 717.431C886.978 717.431 881.833 719.089 881.467 722.75C881.101 726.411 883.297 728.801 888.616 728.627C893.935 728.454 913.937 725.506 918.697 723.482C923.476 721.459 924.941 712.286 922.551 711.014C920.162 709.723 916.308 709.184 916.308 709.184C916.308 709.184 903.647 715.793 897.596 717.431C891.545 719.089 888.982 719.262 888.597 718.356C888.269 717.431 886.978 717.431 886.978 717.431Z" fill="white" stroke="#031F43" stroke-width="3.85409" stroke-miterlimit="10" stroke-linecap="round" stroke-linejoin="round"/>
<path d="M883.494 727.896C883.494 727.896 880.006 729.188 880.373 732.676C880.739 736.163 885.152 737.262 892.667 738.187" stroke="#031F43" stroke-width="3.85409" stroke-miterlimit="10" stroke-linecap="round" stroke-linejoin="round"/>
<path d="M918.718 723.482C918.718 723.482 919.277 728.994 917.061 732.848C914.864 736.702 913.207 738.533 908.061 740.19C902.916 741.847 899.621 744.217 898.156 745.701" stroke="#031F43" stroke-width="3.85409" stroke-miterlimit="10" stroke-linecap="round" stroke-linejoin="round"/>
<path d="M784.634 866.008C784.634 866.008 826.123 767.941 922.495 656.981C963.656 609.595 977.165 580.555 977.165 580.555" stroke="#031F43" stroke-width="3.85409" stroke-miterlimit="10" stroke-linecap="round" stroke-linejoin="round"/>
<path d="M982.856 539.605C982.856 539.605 958.652 532.32 949.865 529.7C941.077 527.079 926.258 533.13 929.399 543.555C932.54 553.942 982.856 539.605 982.856 539.605Z" fill="white" stroke="#031F43" stroke-width="3.85409" stroke-miterlimit="10" stroke-linecap="round" stroke-linejoin="round"/>
<path d="M1003.67 544.248C1003.67 544.248 1028.76 547.351 1037.86 548.488C1046.96 549.644 1058.07 561.168 1051 569.415C1043.91 577.682 1003.67 544.248 1003.67 544.248Z" fill="white" stroke="#031F43" stroke-width="3.85409" stroke-miterlimit="10" stroke-linecap="round" stroke-linejoin="round"/>
<path d="M962.022 548.756C962.022 548.756 922.691 560.607 930.053 576.775C937.414 592.943 955.586 575.06 962.408 567.275C969.23 559.49 969.653 555.346 969.653 555.346L962.022 548.756Z" fill="white" stroke="#031F43" stroke-width="3.85409" stroke-miterlimit="10" stroke-linecap="round" stroke-linejoin="round"/>
<path d="M971.971 556.678C971.971 556.678 942.526 585.314 956.497 596.279C970.468 607.243 978.369 583.001 980.836 572.942C983.302 562.883 981.76 559.009 981.76 559.009L971.971 556.678Z" fill="white" stroke="#031F43" stroke-width="3.85409" stroke-miterlimit="10" stroke-linecap="round" stroke-linejoin="round"/>
<path d="M984.613 561.573C984.613 561.573 970.873 600.287 988.255 603.929C1005.64 607.572 1002 582.327 999.76 572.23C997.525 562.132 994.422 559.318 994.422 559.318L984.613 561.573Z" fill="white" stroke="#031F43" stroke-width="3.85409" stroke-miterlimit="10" stroke-linecap="round" stroke-linejoin="round"/>
<path d="M999.771 563.095C999.771 563.095 1002.37 604.084 1019.79 600.596C1037.21 597.108 1023.92 575.332 1017.89 566.93C1011.85 558.528 1007.9 557.16 1007.9 557.16L999.771 563.095Z" fill="white" stroke="#031F43" stroke-width="3.85409" stroke-miterlimit="10" stroke-linecap="round" stroke-linejoin="round"/>
<path d="M1010.3 561.88C1010.3 561.88 1029.55 598.167 1043.98 587.799C1058.42 577.432 1037.33 563.075 1028.37 557.911C1019.41 552.746 1015.27 553.132 1015.27 553.132L1010.3 561.88Z" fill="white" stroke="#031F43" stroke-width="3.85409" stroke-miterlimit="10" stroke-linecap="round" stroke-linejoin="round"/>
<path d="M962.912 554.519C962.912 554.519 927.628 575.543 920.671 559.201C913.715 542.86 939.171 541.511 949.519 541.742C959.867 541.974 963.22 544.46 963.22 544.46L962.912 554.519Z" fill="white" stroke="#031F43" stroke-width="3.85409" stroke-miterlimit="10" stroke-linecap="round" stroke-linejoin="round"/>
<path d="M1026.12 559.353C1027.55 550.032 1011.57 539.857 990.434 536.626C969.298 533.396 951.01 538.333 949.585 547.654C948.16 556.975 964.139 567.15 985.274 570.381C1006.41 573.612 1024.7 568.674 1026.12 559.353Z" fill="#F3B63F"/>
<path d="M973.608 542.381L979.544 550.937" stroke="#031F43" stroke-width="3.85409" stroke-miterlimit="10" stroke-linecap="round" stroke-linejoin="round"/>
<path d="M972.296 549.625L980.833 543.689" stroke="#031F43" stroke-width="3.85409" stroke-miterlimit="10" stroke-linecap="round" stroke-linejoin="round"/>
<path d="M996.227 545.848L1002.16 554.384" stroke="#031F43" stroke-width="3.85409" stroke-miterlimit="10" stroke-linecap="round" stroke-linejoin="round"/>
<path d="M994.918 553.074L1003.45 547.158" stroke="#031F43" stroke-width="3.85409" stroke-miterlimit="10" stroke-linecap="round" stroke-linejoin="round"/>
<path d="M971.99 558.566L1002.69 563.268" stroke="#031F43" stroke-width="3.85409" stroke-miterlimit="10" stroke-linecap="round" stroke-linejoin="round"/>
</svg>
