<svg xmlns="http://www.w3.org/2000/svg" width="24" height="24" fill="none" viewBox="0 0 24 24">
 
        <path fill="currentColor" fill-rule="evenodd" d="M20 12c0 4.418-3.582 8-8 8s-8-3.582-8-8 3.582-8 8-8 8 3.582 8 8zm-5.98-3.232c.335-.335.878-.335 1.213 0 .334.334.334.877 0 1.212L13.213 12l2.02 2.02c.334.335.334.878 0 1.213-.335.334-.878.334-1.213 0L12 13.213l-2.02 2.02c-.335.334-.878.334-1.212 0-.335-.335-.335-.878 0-1.213l2.02-2.02-2.02-2.02c-.335-.335-.335-.878 0-1.212.334-.335.877-.335 1.212 0l2.02 2.02 2.02-2.02z" clip-rule="evenodd"/>
  
</svg>
